<?xml version="1.0" encoding="UTF-8" standalone="no"?>
<!-- Created with Inkscape (http://www.inkscape.org/) -->

<svg
   xmlns:dc="http://purl.org/dc/elements/1.1/"
   xmlns:cc="http://creativecommons.org/ns#"
   xmlns:rdf="http://www.w3.org/1999/02/22-rdf-syntax-ns#"
   xmlns:svg="http://www.w3.org/2000/svg"
   xmlns="http://www.w3.org/2000/svg"
   xmlns:sodipodi="http://sodipodi.sourceforge.net/DTD/sodipodi-0.dtd"
   xmlns:inkscape="http://www.inkscape.org/namespaces/inkscape"
   id="svg951"
   height="100mm"
   width="100mm"
   version="1.0"
   sodipodi:docname="galerie.svg"
   inkscape:version="0.92.0 r15299">
  <defs
     id="defs10" />
  <sodipodi:namedview
     pagecolor="#ffffff"
     bordercolor="#666666"
     borderopacity="1"
     objecttolerance="10"
     gridtolerance="10"
     guidetolerance="10"
     inkscape:pageopacity="0"
     inkscape:pageshadow="2"
     inkscape:window-width="1920"
     inkscape:window-height="1017"
     id="namedview8"
     showgrid="false"
     units="mm"
     borderlayer="true"
     width="100mm"
     inkscape:zoom="1.4500504"
     inkscape:cx="101.04155"
     inkscape:cy="167.89003"
     inkscape:window-x="1912"
     inkscape:window-y="166"
     inkscape:window-maximized="1"
     inkscape:current-layer="g2159" />
  <metadata
     id="metadata3">
    <rdf:RDF>
      <cc:Work
         rdf:about="">
        <dc:title>Open Book</dc:title>
        <dc:description />
        <dc:subject>
          <rdf:Bag>
            <rdf:li>hash</rdf:li>
            <rdf:li />
            <rdf:li>education</rdf:li>
            <rdf:li>book</rdf:li>
          </rdf:Bag>
        </dc:subject>
        <dc:publisher>
          <cc:Agent
             rdf:about="http://www.openclipart.org">
            <dc:title>Nathan Eady</dc:title>
          </cc:Agent>
        </dc:publisher>
        <dc:creator>
          <cc:Agent>
            <dc:title>Nathan Eady</dc:title>
          </cc:Agent>
        </dc:creator>
        <dc:rights>
          <cc:Agent>
            <dc:title>Nathan Eady</dc:title>
          </cc:Agent>
        </dc:rights>
        <dc:date />
        <dc:format>image/svg+xml</dc:format>
        <dc:type
           rdf:resource="http://purl.org/dc/dcmitype/StillImage" />
        <cc:license
           rdf:resource="http://web.resource.org/cc/PublicDomain" />
        <dc:language>en</dc:language>
      </cc:Work>
      <cc:License
         rdf:about="http://web.resource.org/cc/PublicDomain">
        <cc:permits
           rdf:resource="http://web.resource.org/cc/Reproduction" />
        <cc:permits
           rdf:resource="http://web.resource.org/cc/Distribution" />
        <cc:permits
           rdf:resource="http://web.resource.org/cc/DerivativeWorks" />
      </cc:License>
    </rdf:RDF>
  </metadata>
  <g
     id="g2159"
     transform="translate(5.8591432,89.002616)"
     style="fill:none;stroke:#000000">
    <path
       id="path3139"
       d="m 136.84,45.578 c 1.17,-0.902 12.12,-15.68 42.31,-21.728 23.71,-5.101 32.51,-2.893 57.89,-0.017 61.64,41.406 61.6,41.144 111.01,75.026 -0.15,15.151 0.4,19.331 0,27.881 -59.73,-4.42 -83.98,12.42 -118.14,32.67 -53.26,-2.82 -109.56,14.6 -138.36,35.05 -13.606,7.04 -11.307,1.79 -12.081,1.61 C 78.603,195.86 17.487,92.87 16.765,91.42 15.92,89.734 24.076,68.235 24.989,67.779 25.935,67.306 35.758,52.971 68.883,43.377 106.7,32.426 136.83,42.848 138.22,43.542 c 2.92,1.462 81.73,85.068 82.97,86.308 -41.67,-0.63 -92.08,2.1 -132.02,32.75 -0.897,1.57 -58.812,-95.235 -60.004,-96.427"
       inkscape:connector-curvature="0"
       style="fill:#fff9fa;fill-opacity:1;stroke:#cfcacb;stroke-width:10;stroke-linejoin:round;stroke-opacity:1" />
    <path
       id="path3141"
       d="M 221.84,129.39 C 255.95,99.147 302.82,92.681 346.7,98.563"
       inkscape:connector-curvature="0"
       style="fill:#fff9fa;fill-opacity:1;stroke:#cfcacb;stroke-width:11;stroke-linecap:round;stroke-opacity:1" />
    <path
       id="path3143"
       d="m 89.912,161.67 c -4.172,3.56 -10.181,35.01 -7.627,34.65"
       inkscape:connector-curvature="0"
       style="fill:#fff9fa;fill-opacity:1;stroke:#cfcacb;stroke-width:11;stroke-opacity:1" />
    <path
       id="path46"
       style="fill:#b5203e;fill-opacity:1;fill-rule:nonzero;stroke:none;stroke-width:0.04044916"
       d="m 135.36034,103.58724 -6.03678,2.184 -2.18455,-6.038286 6.03676,-2.184012 z m -9.27292,3.35479 -6.03676,2.184 -2.18455,-6.03828 6.03676,-2.18401 z m -9.27213,3.35451 -6.03753,2.18429 -2.18456,-6.03828 6.03753,-2.18429 z m -9.27214,3.35451 -6.03752,2.1843 -2.184571,-6.03829 6.037531,-2.18429 z m 29.11066,-21.750083 -17.69818,-9.817578 -2.92062,-8.072853 -0.002,0.0012 -3.20488,-1.735431 c 1.04316,-1.448042 1.403,-3.255808 0.79765,-4.929031 -0.86129,-2.380698 -5.61764,-2.923372 -7.18325,-3.038317 l -2.87618,-7.949995 c -0.0759,-0.20996 -0.30764,-0.318855 -0.51798,-0.242753 -0.21034,0.07609 -0.3187,0.308012 -0.24275,0.517972 l 2.85651,7.895602 c -1.01537,0.964827 -4.56926,4.573376 -3.68044,7.030148 0.64635,1.786571 2.23482,2.99314 4.12026,3.363163 l -1.70504,3.298407 -0.005,0.0016 2.89009,7.988412 -3.94932,1.428802 -1.48976,-4.117823 -2.156668,0.780248 1.489758,4.117823 -2.342277,0.847409 -5.818869,18.421178 -0.0055,0.002 10.881506,30.07731 20.79681,-7.52397 -3.10269,-8.57606 0.007,-0.002 c -0.0165,-0.041 -0.0356,-0.0792 -0.0508,-0.12101 -0.90465,-2.50052 2.89174,-6.16756 2.89174,-6.16756 0,0 5.26465,0.38886 6.16929,2.88941 0.0151,0.0419 0.0243,0.0837 0.0384,0.12546 l 0.007,-0.002 3.10269,8.57608 13.7943,-4.99057 -10.88152,-30.077308 -0.007,0.0026"
       inkscape:connector-curvature="0" />
    <g
       id="g4525"
       transform="matrix(0.12520029,0.1276787,-0.1276787,0.12520029,243.33802,102.80132)">
      <path
         inkscape:connector-curvature="0"
         d="m -212.42479,6.7258029 c -1.22666,0.08227 -2.19066,0.2464 -2.88266,0.491734 -0.696,0.244266 -1.04534,0.817733 -1.04534,1.716133 V 55.548199 c 0,0.9016 0.34934,1.4708 1.04534,1.71614 0.692,0.248 1.656,0.412 2.88266,0.49226 v 1.47187 h -24.28933 v -1.47187 c 1.22667,-0.0803 2.188,-0.24426 2.884,-0.49226 0.692,-0.24534 1.04133,-0.81454 1.04133,-1.71614 V 8.9336699 c 0,-0.8984 -0.34933,-1.471867 -1.04133,-1.716133 -0.696,-0.245334 -1.65733,-0.409467 -2.884,-0.491734 v -1.4724 h 24.28933 v 1.4724"
         style="fill:#231f20;fill-opacity:1;fill-rule:nonzero;stroke:none;stroke-width:0.13333333"
         id="path14" />
      <path
         inkscape:connector-curvature="0"
         d="m -187.03412,34.326869 c -0.164,0.4896 -0.24534,1.34947 -0.24534,2.576 0,0.8172 0.756,1.73853 2.268,2.76 1.51334,1.0228 3.47734,1.98427 5.888,2.8828 2.412,0.90147 5.172,1.65627 8.28134,2.26813 3.10666,0.61467 6.256,0.9224 9.44533,0.9224 6.13333,0 10.63067,-0.7172 13.492,-2.14946 2.86267,-1.42907 4.29467,-3.49427 4.29467,-6.19427 0,-1.4724 -1.24667,-2.51347 -3.74267,-3.12813 -2.49467,-0.612 -5.62133,-1.10414 -9.38267,-1.4708 -3.76266,-0.36774 -7.812,-0.776 -12.14533,-1.22654 -4.33333,-0.448 -8.38267,-1.26666 -12.14267,-2.4532 -3.764,-1.18533 -6.89066,-2.90146 -9.384,-5.152 -2.49733,-2.24946 -3.74133,-5.33493 -3.74133,-9.263062 0,-3.106267 0.71333,-5.9265341 2.14533,-8.4625341 1.42934,-2.534266 3.43467,-4.700933 6.01067,-6.49999895 2.57867,-1.80000005 5.70533,-3.21186705 9.38533,-4.23426705 3.68,-1.021467 7.768,-1.5324 12.26534,-1.5324 4.172,0 8.05466,0.266667 11.65466,0.797467 3.59867,0.530666 6.78534,1.125466 9.56667,1.778666 2.77867,0.656267 5.10933,1.247867 6.992,1.778667 1.88133,0.530667 3.22933,0.79733305 4.05067,0.79733305 0.81466,0 1.47066,-0.18546605 1.96,-0.55213305 0.492,-0.3676 0.94,-0.797333 1.34933,-1.289067 l 1.352,0.491734 -8.46667,17.0494661 -1.47066,-0.734933 V 12.73887 c 0,-0.736933 -0.79734,-1.4932 -2.39067,-2.271867 -1.59733,-0.7760001 -3.62,-1.4708001 -6.07333,-2.0854661 -2.45334,-0.612 -5.196,-1.1224 -8.21867,-1.530667 -3.02667,-0.409467 -5.972,-0.614667 -8.83333,-0.614667 -5.316,0 -9.03734,0.614667 -11.16134,1.840134 -2.128,1.226533 -3.19066,2.5349331 -3.19066,3.9256001 0,1.390533 0.73733,2.434266 2.208,3.126532 1.472,0.69587 3.39333,1.20933 5.76666,1.5344 2.372,0.32813 5.06934,0.59373 8.096,0.79733 3.02267,0.2052 6.132,0.512 9.32267,0.9188 3.19067,0.412 6.29733,0.9812 9.32267,1.71867 3.024,0.7344 5.72133,1.81987 8.096,3.25053 2.37066,1.43227 4.292,3.312 5.76666,5.6428 1.47067,2.33067 2.20534,5.25467 2.20534,8.7708 0,2.6984 -0.552,5.3572 -1.656,7.9744 -1.10134,2.61614 -2.984,4.96574 -5.64134,7.05214 -2.65866,2.08546 -6.216,3.7412 -10.672,4.96826 -4.45733,1.22654 -9.99733,1.83854 -16.62133,1.83854 -5.152,0 -9.58933,-0.24427 -13.31067,-0.73494 -3.72133,-0.4916 -6.89066,-1.08226 -9.50533,-1.77866 -2.62,-0.6948 -4.68133,-1.32814 -6.19467,-1.9 -1.51333,-0.57347 -2.63866,-0.85987 -3.372,-0.85987 -0.49333,0 -0.92266,0.164 -1.28933,0.4896 -0.368,0.3276 -0.75867,0.69587 -1.164,1.1036 l -1.47467,-0.36667 9.07867,-21.83586 1.22667,0.61453"
         style="fill:#231f20;fill-opacity:1;fill-rule:nonzero;stroke:none;stroke-width:0.13333333"
         id="path16" />
      <path
         inkscape:connector-curvature="0"
         d="m -107.42479,57.756599 c 1.552,-0.16413 2.51333,-0.42973 2.88267,-0.7964 0.36666,-0.37026 0.54933,-0.83853 0.54933,-1.412 V -1.6157961 c 0,-0.5704 -0.18267,-1.0412 -0.54933,-1.409467 -0.36934,-0.3692 -1.33067,-0.631733 -2.88267,-0.795733 v -1.474534 h 25.267995 v 1.474534 c -1.55467,0.164 -2.516,0.426533 -2.88267,0.795733 -0.368,0.368267 -0.552,0.839067 -0.552,1.409467 V 55.548199 c 0,0.57347 0.184,1.04174 0.552,1.412 0.36667,0.36667 1.328,0.63227 2.88267,0.7964 v 1.47187 h -25.267995 v -1.47187"
         style="fill:#231f20;fill-opacity:1;fill-rule:nonzero;stroke:none;stroke-width:0.13333333"
         id="path18" />
      <path
         inkscape:connector-curvature="0"
         d="m -44.375465,57.756599 c 1.552,-0.16413 2.516,-0.42973 2.88267,-0.7964 0.36666,-0.37026 0.552,-0.83853 0.552,-1.412 V 9.6711369 h -21.09867 c -0.656,0 -1.14667,0.226533 -1.472,0.6745331 -0.328,0.449467 -0.572,1.3692 -0.736,2.759867 h -1.472 V -8.7304631 h 1.472 c 0.164,1.393333 0.408,2.312 0.736,2.76 0.32533,0.450933 0.816,0.674933 1.472,0.674933 h 60.5960003 c 0.65333,0 1.14533,-0.224 1.47467,-0.674933 0.32533,-0.448 0.56933,-1.366667 0.73333,-2.76 h 1.47467 V 13.105537 h -1.47467 c -0.164,-1.390667 -0.408,-2.3104 -0.73333,-2.759867 -0.32934,-0.4480001 -0.82134,-0.6745331 -1.47467,-0.6745331 H -22.539465 V 55.548199 c 0,0.57347 0.18267,1.04174 0.54933,1.412 0.36934,0.36667 1.33067,0.63227 2.88267,0.7964 v 1.47187 h -25.268 v -1.47187"
         style="fill:#231f20;fill-opacity:1;fill-rule:nonzero;stroke:none;stroke-width:0.13333333"
         id="path20" />
      <path
         inkscape:connector-curvature="0"
         d="m -214.93279,-10.91433 c 0,5.2187999 -4.22933,9.4479999 -9.448,9.4479999 -5.21866,0 -9.44666,-4.2292 -9.44666,-9.4479999 0,-5.218666 4.228,-9.447866 9.44666,-9.447866 5.21867,0 9.448,4.2292 9.448,9.447866"
         style="fill:#b5203e;fill-opacity:1;fill-rule:nonzero;stroke:none;stroke-width:0.13333333"
         id="path36" />
      <path
         inkscape:connector-curvature="0"
         d="m -217.19279,-53.123662 0.48667,-0.729333 h 0.11467 c 2.28933,-2.702667 5.664,-4.456 9.48133,-4.456 l 0.024,0.0027 v -0.0027 h 14.216 v -26.850666 h -69.432 v 26.635999 c -2.95333,62.8922649 -56.852,111.890661 -59.208,114.004131 l -5.33333,4.78133 -5.3388,-4.78133 c -2.35934,-2.11507 -56.33854,-51.1869321 -59.21347,-114.150797 h -0.0105 v -26.489333 h -69.43225 v 26.851999 h 14.22398 v 0.0027 l 0.0235,-0.0027 c 3.82026,0 7.19533,1.753334 9.48173,4.457334 h 0.12493 l 0.52614,0.789333 c 0.13533,0.189333 0.2604,0.38 0.3828,0.576 l 109.232,163.839985 109.176,-163.765318 c 0.15066,-0.242667 0.308,-0.48 0.47466,-0.713334"
         style="fill:#231f20;fill-opacity:1;fill-rule:nonzero;stroke:none;stroke-width:0.13333333"
         id="path48" />
    </g>
  </g>
</svg>
