<?xml version="1.0" encoding="UTF-8" standalone="no"?>
<!DOCTYPE svg PUBLIC "-//W3C//DTD SVG 1.1//EN" "http://www.w3.org/Graphics/SVG/1.1/DTD/svg11.dtd">
<svg width="100%" height="100%" viewBox="0 0 83 83" version="1.1" xmlns="http://www.w3.org/2000/svg" xmlns:xlink="http://www.w3.org/1999/xlink" xml:space="preserve" style="fill-rule:evenodd;clip-rule:evenodd;stroke-linecap:round;stroke-linejoin:round;stroke-miterlimit:1.41421;">
    <g transform="matrix(0.266325,0,0,0.266325,-57.8278,-98.0256)">
        <g id="Aufgabenart--Kontur-0-8-">
            <g id="Glossar">
                <g id="Rahme" transform="matrix(2.03973,0,0,1.1103,-318.219,383.521)">
                    <path d="M287.76,46.679C282.124,46.679 277.572,51.199 277.572,56.835L277.572,194.895C277.572,200.531 282.124,205.083 287.76,205.083L388.04,205.083C393.676,205.083 398.196,200.531 398.196,194.895L398.196,103.894L368.596,46.676L287.752,46.676L287.76,46.679Z" style="fill:white;fill-rule:nonzero;stroke:black;stroke-width:5.96px;"/>
                </g>
                <g transform="matrix(4.6875,0,0,1.60076,175.942,467.736)">
                    <g transform="matrix(0.793015,0,0,2.34564,3.22778,-35.9174)">
                        <path d="M38.47,38.28L30.072,38.28L28.916,42.219L21.381,42.219L30.349,18.358L38.389,18.358L47.357,42.219L39.642,42.219L38.47,38.28ZM36.924,33.121L34.287,24.543L31.667,33.121L36.924,33.121Z" style="fill:rgb(89,89,89);fill-rule:nonzero;"/>
                    </g>
                    <g transform="matrix(0.793015,0,0,2.34564,3.22778,-35.9174)">
                        <path d="M53.115,18.358L73.981,18.358L73.981,23.127L60.602,37.092L74.469,37.092L74.469,42.219L51.829,42.219L51.829,37.271L65.062,23.453L53.115,23.453L53.115,18.358Z" style="fill:rgb(89,89,89);fill-rule:nonzero;"/>
                    </g>
                </g>
                <g id="Ecke" transform="matrix(2.03973,0,0,2.03973,-317.842,343.006)">
                    <path d="M397.83,75.929L368.24,46.304L368.24,65.742C368.24,71.378 372.76,75.93 378.396,75.93L397.834,75.93L397.83,75.929Z" style="fill:white;fill-rule:nonzero;stroke:black;stroke-width:4.92px;"/>
                </g>
            </g>
        </g>
    </g>
</svg>
