<?xml version="1.0" encoding="UTF-8" standalone="no"?>
<svg
   xmlns:dc="http://purl.org/dc/elements/1.1/"
   xmlns:cc="http://creativecommons.org/ns#"
   xmlns:rdf="http://www.w3.org/1999/02/22-rdf-syntax-ns#"
   xmlns:svg="http://www.w3.org/2000/svg"
   xmlns="http://www.w3.org/2000/svg"
   xmlns:sodipodi="http://sodipodi.sourceforge.net/DTD/sodipodi-0.dtd"
   xmlns:inkscape="http://www.inkscape.org/namespaces/inkscape"
   height="100"
   id="svg6584"
   version="1.1"
   width="100"
   sodipodi:docname="prison.svg"
   inkscape:version="0.92.0 r15299">
  <metadata
     id="metadata8">
    <rdf:RDF>
      <cc:Work
         rdf:about="">
        <dc:format>image/svg+xml</dc:format>
        <dc:type
           rdf:resource="http://purl.org/dc/dcmitype/StillImage" />
        <dc:title></dc:title>
      </cc:Work>
    </rdf:RDF>
  </metadata>
  <sodipodi:namedview
     pagecolor="#ffffff"
     bordercolor="#666666"
     borderopacity="1"
     objecttolerance="10"
     gridtolerance="10"
     guidetolerance="10"
     inkscape:pageopacity="0"
     inkscape:pageshadow="2"
     inkscape:window-width="1920"
     inkscape:window-height="1017"
     id="namedview6"
     showgrid="false"
     fit-margin-top="0"
     fit-margin-left="0"
     fit-margin-right="0"
     fit-margin-bottom="0"
     inkscape:zoom="2.36"
     inkscape:cx="35.416667"
     inkscape:cy="29.1667"
     inkscape:window-x="-8"
     inkscape:window-y="-8"
     inkscape:window-maximized="1"
     inkscape:current-layer="svg6584" />
  <defs
     id="defs6586" />
  <g
     id="layer1"
     transform="translate(0,-952.36202)">
    <path
       d="m 18.75,973.19535 c -2.308334,0 -4.166667,1.85833 -4.166667,4.16666 v 12.49999 25 12.5 c 0,2.3084 1.858333,4.1667 4.166667,4.1667 2.308333,0 4.166666,-1.8583 4.166666,-4.1667 v -8.3334 h 12.500001 v 8.3334 c 0,2.3084 1.858333,4.1667 4.166666,4.1667 2.308334,0 4.166667,-1.8583 4.166667,-4.1667 v -8.3334 h 12.5 v 8.3334 c 0,2.3084 1.858333,4.1667 4.166667,4.1667 2.308333,0 4.166666,-1.8583 4.166666,-4.1667 v -8.3334 h 12.500001 v 8.3334 c 0,2.3084 1.858333,4.1667 4.166666,4.1667 2.308334,0 4.166667,-1.8583 4.166667,-4.1667 v -49.99999 c 0,-2.30833 -1.858333,-4.16666 -4.166667,-4.16666 -2.308333,0 -4.166666,1.85833 -4.166666,4.16666 v 8.33333 H 64.583333 v -8.33333 c 0,-2.30833 -1.858333,-4.16666 -4.166666,-4.16666 -2.308334,0 -4.166667,1.85833 -4.166667,4.16666 v 8.33333 h -12.5 v -8.33333 c 0,-2.30833 -1.858333,-4.16666 -4.166667,-4.16666 -2.308333,0 -4.166666,1.85833 -4.166666,4.16666 v 8.33333 H 22.916666 v -8.33333 c 0,-2.30833 -1.858333,-4.16666 -4.166666,-4.16666 z m 4.166666,20.83332 h 12.500001 v 16.66663 H 22.916666 Z m 20.833334,0 h 12.5 v 16.66663 h -12.5 z m 20.833333,0 h 12.500001 v 16.66663 H 64.583333 Z"
       id="rect4496"
       style="color:#000000;display:inline;overflow:visible;visibility:visible;fill:#000000;fill-opacity:1;stroke:none;stroke-width:1;marker:none;enable-background:accumulate"
       inkscape:connector-curvature="0" />
  </g>
</svg>
