<?xml version="1.0" encoding="UTF-8" standalone="no"?>
<!-- Created with Inkscape (http://www.inkscape.org/) -->

<svg
   xmlns:dc="http://purl.org/dc/elements/1.1/"
   xmlns:cc="http://creativecommons.org/ns#"
   xmlns:rdf="http://www.w3.org/1999/02/22-rdf-syntax-ns#"
   xmlns:svg="http://www.w3.org/2000/svg"
   xmlns="http://www.w3.org/2000/svg"
   xmlns:sodipodi="http://sodipodi.sourceforge.net/DTD/sodipodi-0.dtd"
   xmlns:inkscape="http://www.inkscape.org/namespaces/inkscape"
   width="100mm"
   height="100mm"
   viewBox="0 0 100 100"
   version="1.1"
   id="svg4533"
   inkscape:version="0.92.0 r15299"
   sodipodi:docname="scope.svg">
  <defs
     id="defs4527" />
  <sodipodi:namedview
     id="base"
     pagecolor="#ffffff"
     bordercolor="#666666"
     borderopacity="1.0"
     inkscape:pageopacity="0.0"
     inkscape:pageshadow="2"
     inkscape:zoom="1"
     inkscape:cx="115.94138"
     inkscape:cy="281.05413"
     inkscape:document-units="mm"
     inkscape:current-layer="layer1"
     showgrid="false"
     inkscape:window-width="1920"
     inkscape:window-height="1017"
     inkscape:window-x="1912"
     inkscape:window-y="166"
     inkscape:window-maximized="1" />
  <metadata
     id="metadata4530">
    <rdf:RDF>
      <cc:Work
         rdf:about="">
        <dc:format>image/svg+xml</dc:format>
        <dc:type
           rdf:resource="http://purl.org/dc/dcmitype/StillImage" />
        <dc:title></dc:title>
      </cc:Work>
    </rdf:RDF>
  </metadata>
  <g
     inkscape:label="Ebene 1"
     inkscape:groupmode="layer"
     id="layer1"
     transform="translate(0,-197)">
    <path
       style="fill:#b61f34;fill-opacity:1;stroke-width:0.33926091"
       d="m 10.560381,248.7285 c -0.557016,-0.67989 -3.0881995,-6.72159 -3.0881995,-7.37031 0,-0.28506 0.3850219,-0.92564 0.8564737,-1.42403 L 9.1851289,239.02811 7.930365,235.912 c -1.1872794,-2.94855 -1.2240359,-3.15047 -0.6836094,-3.75572 0.3143007,-0.35145 1.403882,-0.92678 2.4218747,-1.2776 2.2705797,-0.78258 2.3565737,-0.7153 3.8787657,3.03369 0.597171,1.47121 1.283224,2.75164 1.524191,2.84539 0.240967,0.0939 2.382245,-0.65951 4.758375,-1.67402 4.127408,-1.76211 4.324979,-1.89188 4.424078,-2.90532 0.06114,-0.58338 0.289852,-1.21741 0.516852,-1.40881 0.388512,-0.32666 4.100781,-1.9642 14.034933,-6.1906 13.04881,-5.55147 30.729668,-13.33289 31.248964,-13.75277 0.231362,-0.18766 0.420815,-0.76397 0.420815,-1.28176 0,-0.51788 0.189453,-1.09445 0.420822,-1.28186 0.607645,-0.49132 10.645872,-4.86732 11.16613,-4.86732 0.778771,0 1.441344,1.11763 3.239587,5.46593 0.971371,2.34869 2.360597,5.68912 3.087243,7.42334 0.984555,2.34966 1.238965,3.30865 0.998615,3.76402 -0.18946,0.35943 -2.69314,1.58551 -6.074604,2.97545 l -5.752183,2.36444 -0.784885,-0.74805 c -0.432166,-0.41164 -0.902226,-0.74804 -1.045315,-0.74804 -0.446142,0 -22.497284,9.45394 -41.37825,17.74015 -2.170958,0.95271 -4.132207,1.73226 -4.358159,1.73226 -0.226124,0 -0.7456,-0.3187 -1.155148,-0.70908 l -0.744723,-0.70909 -7.700335,3.46383 c -8.471255,3.8105 -9.223312,4.06422 -9.834457,3.31742 z"
       id="path5089"
       inkscape:connector-curvature="0"
       sodipodi:nodetypes="csccccccccccccscsccccccscsccccc" />
    <path
       style="fill:#cfcacb;fill-opacity:1;stroke-width:0.33926091"
       d="m 31.4411,290.61964 -0.79449,-0.65508 7.916939,-21.50622 c 4.35432,-11.82847 8.56633,-23.3286 9.36003,-25.55573 0.793615,-2.22723 1.682043,-4.34449 1.974175,-4.70515 0.594556,-0.73388 6.407155,-3.03139 7.669427,-3.03139 0.971026,0 0.729009,-0.54001 4.822809,10.76325 1.700811,4.69612 5.959353,16.32248 9.463392,25.83644 3.504134,9.51388 6.371103,17.6177 6.371103,18.00854 0,1.01955 -0.999572,1.42263 -3.431233,1.38375 -3.000288,-0.0443 -3.722304,-0.324 -4.407048,-1.68677 -0.327398,-0.65066 -2.926162,-7.88826 -5.776013,-16.08364 -2.849856,-8.19538 -5.365507,-15.24929 -5.590408,-15.67536 -0.326525,-0.61968 -0.470577,-0.67989 -0.718529,-0.30187 -0.185089,0.28328 -0.218263,6.87863 -0.07858,16.43288 0.180723,12.68318 0.139694,16.06717 -0.200806,16.48324 -0.589317,0.7206 -6.139037,0.75425 -6.722938,0.0443 -0.291605,-0.35588 -0.379783,-4.74135 -0.337873,-16.75608 0.03492,-8.95042 -0.03492,-16.36853 -0.151913,-16.48467 -0.114374,-0.11594 -0.296844,-0.12128 -0.40598,-0.009 -0.274137,0.27797 -2.03188,5.17921 -7.196753,20.06934 -2.443967,7.04595 -4.644002,13.01896 -4.888892,13.27331 -0.271523,0.28151 -1.546196,0.53115 -3.262029,0.63916 -2.436283,0.15225 -2.924152,0.0885 -3.611253,-0.47805 z"
       id="path5089-1"
       inkscape:connector-curvature="0"
       sodipodi:nodetypes="cccccsccsccsccccccccccccc" />
  </g>
</svg>
