<?xml version="1.0" standalone="no"?>
<!DOCTYPE svg PUBLIC "-//W3C//DTD SVG 20010904//EN"
 "http://www.w3.org/TR/2001/REC-SVG-20010904/DTD/svg10.dtd">
<svg version="1.0" xmlns="http://www.w3.org/2000/svg"
 width="1000.000000pt" height="1096.000000pt" viewBox="0 0 1000.000000 1096.000000"
 preserveAspectRatio="xMidYMid meet">
<metadata>
Created by potrace 1.15, written by Peter Selinger 2001-2017
</metadata>
<g transform="translate(0.000000,1096.000000) scale(0.100000,-0.100000)"
fill="#000000" stroke="none">
<path d="M7920 8586 l0 -296 -62 -31 c-95 -47 -221 -133 -263 -180 -20 -23
-46 -62 -57 -87 -48 -108 11 -264 135 -359 l28 -22 -71 -68 c-39 -37 -80 -73
-91 -81 -18 -12 -19 -29 -19 -303 l0 -289 -140 0 -140 0 0 145 0 145 -80 0
-80 0 0 -145 0 -145 -83 0 -84 0 -396 -517 -396 -518 -1 -1087 0 -1088 745 0
745 0 0 298 c1 323 3 360 30 412 32 62 155 167 258 219 l43 22 67 -36 c131
-73 222 -161 250 -244 8 -23 12 -138 12 -352 l0 -319 495 0 495 0 0 1085 0
1086 -112 128 c-182 206 -502 573 -650 745 l-138 159 0 289 0 290 -80 91 -79
91 49 47 c94 93 133 229 92 321 -11 25 -37 64 -57 87 -42 47 -170 135 -257
177 l-58 28 -2 296 -3 295 -22 3 -23 3 0 -295z m-1020 -3256 l0 -220 -215 0
-215 0 0 220 0 220 215 0 215 0 0 -220z m670 0 l0 -220 -215 0 -215 0 0 220 0
220 215 0 215 0 0 -220z m670 0 l0 -220 -215 0 -215 0 0 220 0 220 215 0 215
0 0 -220z m670 0 l0 -220 -215 0 -215 0 0 220 0 220 215 0 215 0 0 -220z"/>
<path d="M1452 6810 l3 -521 185 -78 185 -79 6 -1294 c4 -926 9 -1317 18
-1377 71 -501 277 -975 645 -1486 l35 -49 3 739 3 740 34 63 c55 102 206 230
377 319 l54 28 47 -25 c178 -93 343 -235 389 -335 l24 -50 0 -740 1 -740 30
35 c43 49 206 296 273 414 208 361 334 719 387 1097 9 59 14 461 18 1372 l6
1288 188 81 187 80 0 519 0 519 -300 0 -300 0 0 -285 0 -285 -310 0 -310 0 0
285 0 285 -330 0 -330 0 0 -285 0 -285 -310 0 -310 0 0 285 0 285 -300 0 -300
0 2 -520z m1338 -1535 l0 -275 -270 0 -270 0 0 275 0 275 270 0 270 0 0 -275z
m960 0 l0 -275 -270 0 -270 0 0 275 0 275 270 0 270 0 0 -275z"/>
<path d="M240 4965 l0 -585 275 0 275 0 -2 583 -3 582 -272 3 -273 2 0 -585z"/>
<path d="M1130 4965 l0 -585 270 0 270 0 0 585 0 585 -270 0 -270 0 0 -585z"/>
<path d="M4330 4965 l0 -585 270 0 270 0 0 585 0 585 -270 0 -270 0 0 -585z"/>
<path d="M5210 4965 l0 -585 270 0 270 0 0 585 0 585 -270 0 -270 0 0 -585z"/>
<path d="M240 3930 l0 -280 179 0 c193 0 220 -5 281 -57 18 -15 541 -791 1163
-1725 621 -934 1132 -1698 1136 -1698 3 0 510 757 1126 1682 616 925 1133
1697 1148 1715 63 72 82 77 292 83 l190 5 0 275 0 275 -712 3 -713 2 0 -258
c0 -327 -12 -465 -60 -697 -50 -236 -125 -447 -260 -720 -147 -301 -327 -574
-557 -850 -106 -127 -406 -435 -443 -455 -16 -9 -44 15 -197 167 -99 98 -213
219 -255 269 -443 531 -731 1089 -838 1624 -39 192 -50 331 -50 633 l0 287
-715 0 -715 0 0 -280z"/>
<path d="M5060 2871 c-55 -17 -91 -43 -118 -83 -23 -35 -27 -52 -27 -108 0
-57 4 -73 29 -108 40 -58 100 -86 176 -80 77 5 122 36 157 106 21 44 25 61 20
104 -8 64 -45 121 -96 148 -46 23 -106 32 -141 21z"/>
<path d="M8370 2410 c0 -179 3 -228 13 -224 6 2 19 19 27 37 l15 32 223 3 222
2 -2 -486 -3 -487 -30 -11 c-16 -6 -31 -17 -32 -23 -2 -10 55 -13 262 -13 216
0 265 2 265 14 0 7 -15 17 -32 22 l-33 10 -3 487 -2 487 218 0 c196 0 221 -2
234 -17 9 -10 18 -27 19 -37 2 -11 10 -21 17 -24 9 -3 12 47 12 227 0 182 -3
231 -13 231 -7 0 -17 -15 -22 -32 l-10 -33 -650 0 -650 0 -10 33 c-5 17 -15
32 -22 32 -10 0 -13 -49 -13 -230z"/>
<path d="M6175 2571 c-192 -32 -347 -126 -409 -250 -54 -106 -53 -236 2 -316
39 -57 134 -117 233 -147 106 -33 165 -43 364 -63 371 -37 402 -48 396 -137
-2 -32 -61 -87 -119 -109 -51 -20 -75 -23 -232 -23 -160 -1 -183 2 -272 26
-102 29 -208 76 -245 111 -16 14 -23 32 -23 59 0 79 -27 39 -113 -169 -47
-115 -89 -216 -93 -225 -8 -23 15 -24 53 -2 27 16 33 15 127 -15 189 -61 394
-87 615 -78 296 11 476 76 580 207 56 71 76 136 76 245 -1 115 -25 173 -101
245 -103 98 -252 139 -614 170 -204 18 -252 28 -294 61 -56 44 -16 116 80 145
116 35 333 26 522 -22 112 -28 176 -60 180 -92 2 -12 11 -26 21 -31 15 -8 29
14 104 165 48 96 87 176 87 179 0 12 -39 4 -50 -10 -18 -22 -60 -18 -194 15
-66 17 -158 37 -205 46 -98 17 -401 27 -476 15z"/>
<path d="M7510 2550 c0 -14 7 -20 24 -20 13 0 29 -6 35 -14 8 -9 10 -179 9
-617 l-3 -604 -32 -14 c-18 -8 -33 -21 -33 -28 0 -10 51 -13 260 -13 223 0
260 2 260 15 0 8 -12 18 -27 21 -16 4 -31 12 -35 18 -4 6 -8 281 -8 611 0 454
3 604 12 613 7 7 22 12 35 12 16 0 23 6 23 20 0 19 -7 20 -260 20 -253 0 -260
-1 -260 -20z"/>
<path d="M4850 2335 c0 -8 12 -17 28 -21 15 -3 33 -7 40 -10 10 -3 12 -110 10
-511 l-3 -507 -37 -9 c-22 -5 -38 -15 -38 -23 0 -12 42 -14 250 -14 207 0 250
2 250 14 0 8 -12 17 -27 21 -55 13 -53 -9 -53 520 0 529 -2 506 53 519 15 3
27 13 27 21 0 13 -36 15 -250 15 -214 0 -250 -2 -250 -15z"/>
</g>
</svg>
