<?xml version="1.0" encoding="UTF-8" standalone="no"?>
<svg
   xmlns:dc="http://purl.org/dc/elements/1.1/"
   xmlns:cc="http://creativecommons.org/ns#"
   xmlns:rdf="http://www.w3.org/1999/02/22-rdf-syntax-ns#"
   xmlns:svg="http://www.w3.org/2000/svg"
   xmlns="http://www.w3.org/2000/svg"
   xmlns:sodipodi="http://sodipodi.sourceforge.net/DTD/sodipodi-0.dtd"
   xmlns:inkscape="http://www.inkscape.org/namespaces/inkscape"
   version="1.0"
   width="1000.000000pt"
   height="1096.000000pt"
   viewBox="0 0 1000.000000 1096.000000"
   preserveAspectRatio="xMidYMid meet"
   id="svg30"
   sodipodi:docname="visitbe.svg"
   inkscape:version="0.92.0 r15299">
  <defs
     id="defs34" />
  <sodipodi:namedview
     pagecolor="#ffffff"
     bordercolor="#666666"
     borderopacity="1"
     objecttolerance="10"
     gridtolerance="10"
     guidetolerance="10"
     inkscape:pageopacity="0"
     inkscape:pageshadow="2"
     inkscape:window-width="1920"
     inkscape:window-height="1017"
     id="namedview32"
     showgrid="false"
     inkscape:zoom="0.3229927"
     inkscape:cx="487.2242"
     inkscape:cy="476.90421"
     inkscape:window-x="1912"
     inkscape:window-y="166"
     inkscape:window-maximized="1"
     inkscape:current-layer="g10" />
  <metadata
     id="metadata2">
Created by potrace 1.15, written by Peter Selinger 2001-2017
<rdf:RDF>
  <cc:Work
     rdf:about="">
    <dc:format>image/svg+xml</dc:format>
    <dc:type
       rdf:resource="http://purl.org/dc/dcmitype/StillImage" />
  </cc:Work>
</rdf:RDF>
</metadata>
  <g
     transform="matrix(2.7078051,0,0,-2.7078051,29.465905,1073.3327)"
     id="g10">
    <path
       inkscape:connector-curvature="0"
       d="m 186.447,78.4719 c -0.92,-0.0617 -1.643,-0.1848 -2.162,-0.3688 -0.522,-0.1832 -0.784,-0.6133 -0.784,-1.2871 V 41.8551 c 0,-0.6762 0.262,-1.1031 0.784,-1.2871 0.519,-0.186 1.242,-0.309 2.162,-0.3692 V 39.0949 H 168.23 v 1.1039 c 0.92,0.0602 1.641,0.1832 2.163,0.3692 0.519,0.184 0.781,0.6109 0.781,1.2871 V 76.816 c 0,0.6738 -0.262,1.1039 -0.781,1.2871 -0.522,0.184 -1.243,0.3071 -2.163,0.3688 v 1.1043 h 18.217 v -1.1043"
       style="fill:#cfcacb;fill-opacity:1;fill-rule:nonzero;stroke:none;stroke-width:0.1"
       id="path14-9" />
    <path
       inkscape:connector-curvature="0"
       d="m 205.49,57.7711 c -0.123,-0.3672 -0.184,-1.0121 -0.184,-1.932 0,-0.6129 0.567,-1.3039 1.701,-2.07 1.135,-0.7671 2.608,-1.4882 4.416,-2.1621 1.809,-0.6761 3.879,-1.2422 6.211,-1.7011 2.33,-0.461 4.692,-0.6918 7.084,-0.6918 4.6,0 7.973,0.5379 10.119,1.6121 2.147,1.0718 3.221,2.6207 3.221,4.6457 0,1.1043 -0.935,1.8851 -2.807,2.3461 -1.871,0.459 -4.216,0.8281 -7.037,1.1031 -2.822,0.2758 -5.859,0.582 -9.109,0.9199 -3.25,0.336 -6.287,0.95 -9.107,1.8399 -2.823,0.889 -5.168,2.1761 -7.038,3.864 -1.873,1.6871 -2.806,4.0012 -2.806,6.9473 0,2.3297 0.535,4.4449 1.609,6.3469 1.072,1.9007 2.576,3.5257 4.508,4.875 1.934,1.35 4.279,2.4089 7.039,3.1757 2.76,0.7661 5.826,1.1493 9.199,1.1493 3.129,0 6.041,-0.2 8.741,-0.5981 2.699,-0.398 5.089,-0.8441 7.175,-1.334 2.084,-0.4922 3.832,-0.9359 5.244,-1.334 1.411,-0.398 2.422,-0.598 3.038,-0.598 0.611,0 1.103,0.1391 1.47,0.4141 0.369,0.2757 0.705,0.598 1.012,0.9668 l 1.014,-0.3688 -6.35,-12.7871 -1.103,0.5512 v 1.0109 c 0,0.5527 -0.598,1.1199 -1.793,1.7039 -1.198,0.582 -2.715,1.1031 -4.555,1.5641 -1.84,0.459 -3.897,0.8418 -6.164,1.148 -2.27,0.3071 -4.479,0.461 -6.625,0.461 -3.987,0 -6.778,-0.461 -8.371,-1.3801 -1.596,-0.9199 -2.393,-1.9012 -2.393,-2.9442 0,-1.0429 0.553,-1.8257 1.656,-2.3449 1.104,-0.5219 2.545,-0.907 4.325,-1.1508 1.779,-0.2461 3.802,-0.4453 6.072,-0.598 2.267,-0.1539 4.599,-0.384 6.992,-0.6891 2.393,-0.309 4.723,-0.7359 6.992,-1.289 2.268,-0.5508 4.291,-1.3649 6.072,-2.4379 1.778,-1.0742 3.219,-2.484 4.325,-4.2321 1.103,-1.748 1.654,-3.941 1.654,-6.5781 0,-2.0238 -0.414,-4.0179 -1.242,-5.9808 -0.826,-1.9621 -2.238,-3.7243 -4.231,-5.2891 -1.994,-1.5641 -4.662,-2.8059 -8.004,-3.7262 -3.343,-0.9199 -7.498,-1.3789 -12.466,-1.3789 -3.864,0 -7.192,0.1832 -9.983,0.5512 -2.791,0.3687 -5.168,0.8117 -7.129,1.334 -1.965,0.5211 -3.511,0.9961 -4.646,1.425 -1.135,0.4301 -1.979,0.6449 -2.529,0.6449 -0.37,0 -0.692,-0.123 -0.967,-0.3672 -0.276,-0.2457 -0.569,-0.5219 -0.873,-0.8277 l -1.106,0.275 6.809,16.3769 0.92,-0.4609"
       style="fill:#cfcacb;fill-opacity:1;fill-rule:nonzero;stroke:none;stroke-width:0.1"
       id="path16-5" />
    <path
       inkscape:connector-curvature="0"
       d="m 265.197,40.1988 c 1.164,0.1231 1.885,0.3223 2.162,0.5973 0.275,0.2777 0.412,0.6289 0.412,1.059 v 42.873 c 0,0.4278 -0.137,0.7809 -0.412,1.0571 -0.277,0.2769 -0.998,0.4738 -2.162,0.5968 v 1.1059 h 18.951 V 86.382 c -1.166,-0.123 -1.887,-0.3199 -2.162,-0.5968 -0.276,-0.2762 -0.414,-0.6293 -0.414,-1.0571 v -42.873 c 0,-0.4301 0.138,-0.7813 0.414,-1.059 0.275,-0.275 0.996,-0.4742 2.162,-0.5973 v -1.1039 h -18.951 v 1.1039"
       style="fill:#cfcacb;fill-opacity:1;fill-rule:nonzero;stroke:none;stroke-width:0.1"
       id="path18-3" />
    <path
       inkscape:connector-curvature="0"
       d="m 312.484,40.1988 c 1.164,0.1231 1.887,0.3223 2.162,0.5973 0.275,0.2777 0.414,0.6289 0.414,1.059 v 34.4078 h -15.824 c -0.492,0 -0.86,-0.1699 -1.104,-0.5059 -0.246,-0.3371 -0.429,-1.0269 -0.552,-2.0699 h -1.104 v 16.377 h 1.104 c 0.123,-1.045 0.306,-1.734 0.552,-2.07 0.244,-0.3382 0.612,-0.5062 1.104,-0.5062 h 45.447 c 0.49,0 0.859,0.168 1.106,0.5062 0.244,0.336 0.427,1.025 0.55,2.07 h 1.106 v -16.377 h -1.106 c -0.123,1.043 -0.306,1.7328 -0.55,2.0699 -0.247,0.336 -0.616,0.5059 -1.106,0.5059 H 328.861 V 41.8551 c 0,-0.4301 0.137,-0.7813 0.412,-1.059 0.277,-0.275 0.998,-0.4742 2.162,-0.5973 v -1.1039 h -18.951 v 1.1039"
       style="fill:#cfcacb;fill-opacity:1;fill-rule:nonzero;stroke:none;stroke-width:0.1"
       id="path20-9" />
    <path
       inkscape:connector-curvature="0"
       d="m 201.039,206.215 h -8 c 0,48.698 -37.5,88.766 -85.022,92.614 0.692,2.65 1.481,5.253 2.366,7.82 50.815,-4.993 90.656,-48.131 90.656,-100.434 M 8,206.215 H 0 c 0,38.691 21.802,72.367 53.718,89.296 -0.8149,-3.384 -1.4594,-6.832 -1.9246,-10.337 C 25.5238,268.764 8,239.506 8,206.215 m 52.7145,83.871 c 0.6695,3.352 1.5195,6.642 2.5386,9.857 11.5289,4.636 24.1047,7.188 37.2649,7.188 0.531,0 1.058,-0.004 1.588,-0.013 -0.848,-2.622 -1.605,-5.29 -2.2662,-7.989 -13.991,-0.102 -27.2546,-3.338 -39.1253,-9.043"
       style="fill:#f7e094;fill-opacity:1;fill-rule:nonzero;stroke:none;stroke-width:0.1"
       id="path22-5" />
    <path
       inkscape:connector-curvature="0"
       d="m 329.05,225.386 h -8 v 46.318 c 0,59.441 -48.562,107.799 -108.254,107.799 -14.317,0 -27.991,-2.781 -40.511,-7.831 -4.897,0.937 -9.92,1.525 -15.036,1.736 16.514,8.985 35.442,14.095 55.547,14.095 64.104,0 116.254,-51.947 116.254,-115.799 v -46.318 m -224.503,46.318 h -8.0001 c 0,9.447 1.1402,18.628 3.2929,27.425 0.2272,10e-4 0.4502,0.002 0.6782,0.002 2.525,0 5.024,-0.102 7.499,-0.302 -2.264,-8.668 -3.47,-17.761 -3.47,-27.125 m 5.836,34.945 c -2.728,0.268 -5.49,0.426 -8.277,0.469 7.581,23.458 22.482,43.673 42.013,57.964 2.918,0.273 5.879,0.413 8.867,0.413 2.065,0 4.11,-0.066 6.141,-0.197 -22.624,-12.917 -40.148,-33.738 -48.744,-58.649"
       style="fill:#f7e094;fill-opacity:1;fill-rule:nonzero;stroke:none;stroke-width:0.1"
       id="path24-5" />
    <path
       inkscape:connector-curvature="0"
       d="m 108.017,298.829 c -2.475,0.2 -4.974,0.302 -7.499,0.302 -0.228,0 -0.451,-10e-4 -0.6782,-0.002 0.6612,2.699 1.4182,5.367 2.2662,7.989 2.787,-0.043 5.549,-0.201 8.277,-0.469 -0.885,-2.567 -1.674,-5.17 -2.366,-7.82"
       style="fill:#f3d263;fill-opacity:1;fill-rule:nonzero;stroke:none;stroke-width:0.1"
       id="path26-1" />
    <path
       inkscape:connector-curvature="0"
       d="m 255.068,265.948 h -8 v 5.815 c 0,49.628 -38.917,90.371 -87.941,93.535 4.217,2.407 8.612,4.54 13.158,6.374 47.093,-9.017 82.783,-50.387 82.783,-99.909 v -5.815 m -196.1578,5.815 h -8 c 0,4.547 0.3003,9.021 0.8832,13.411 2.8722,1.794 5.8511,3.436 8.9211,4.912 -1.1832,-5.927 -1.8043,-12.055 -1.8043,-18.323 m -5.1922,23.748 c 10.7625,44.677 51.187,77.984 99.268,77.984 1.43,0 2.848,-0.029 4.263,-0.087 -4.569,-2.487 -8.957,-5.272 -13.13,-8.326 -38.116,-3.565 -69.6885,-29.88 -80.8659,-65.139 -3.2664,-1.314 -6.4476,-2.795 -9.5351,-4.432"
       style="fill:#f7e094;fill-opacity:1;fill-rule:nonzero;stroke:none;stroke-width:0.1"
       id="path28" />
    <path
       inkscape:connector-curvature="0"
       d="m 51.7934,285.174 c 0.4652,3.505 1.1097,6.953 1.9246,10.337 3.0875,1.637 6.2687,3.118 9.5351,4.432 -1.0191,-3.215 -1.8691,-6.505 -2.5386,-9.857 -3.07,-1.476 -6.0489,-3.118 -8.9211,-4.912"
       style="fill:#f3d263;fill-opacity:1;fill-rule:nonzero;stroke:none;stroke-width:0.1"
       id="path30" />
    <path
       inkscape:connector-curvature="0"
       d="m 144.119,365.082 c 4.173,3.054 8.561,5.839 13.13,8.326 5.116,-0.211 10.139,-0.799 15.036,-1.736 -4.546,-1.834 -8.941,-3.967 -13.158,-6.374 -2.031,0.131 -4.076,0.197 -6.141,0.197 -2.988,0 -5.949,-0.14 -8.867,-0.413"
       style="fill:#f3d263;fill-opacity:1;fill-rule:nonzero;stroke:none;stroke-width:0.1"
       id="path32" />
    <path
       inkscape:connector-curvature="0"
       d="m 128.02,176.313 h -19.844 v 19.843 h 19.844 z m -35.0239,0 H 73.1563 v 19.843 h 19.8398 z m 54.1839,85.096 h -11.84 v -20.972 h -22.758 v 20.972 H 88.7383 V 240.437 H 65.9805 v 20.972 H 44.1406 v -22.972 -15.043 l 14,-6 v -79.996 c 0,0 0,-4.824 0,-7.277 0,-26.639 13.6758,-50.4089 25.5157,-66.0011 v 51.3741 h 0.0234 c -0.0039,0.156 -0.0234,0.308 -0.0234,0.465 0,9.39 17.0077,17.007 17.0077,17.007 0,0 17.008,-7.617 17.008,-17.007 0,-0.157 -0.02,-0.309 -0.024,-0.465 h 0.024 V 64.1301 c 11.838,15.5929 25.508,39.3579 25.508,65.9909 0,2.453 0,7.277 0,7.277 v 79.996 l 14,6 v 15.043 22.972 h -10"
       style="fill:#b5203e;fill-opacity:1;fill-rule:nonzero;stroke:none;stroke-width:0.1"
       id="path34" />
    <path
       inkscape:connector-curvature="0"
       d="m 184.566,91.702 c 0,-3.9141 -3.172,-7.086 -7.086,-7.086 -3.914,0 -7.085,3.1719 -7.085,7.086 0,3.914 3.171,7.0859 7.085,7.0859 3.914,0 7.086,-3.1719 7.086,-7.0859"
       style="fill:#b5203e;fill-opacity:1;fill-rule:nonzero;stroke:none;stroke-width:0.1"
       id="path36" />
    <path
       inkscape:connector-curvature="0"
       d="M 168.863,153.638 H 149.02 v 42.519 h 19.843 v -42.519"
       style="fill:#b5203e;fill-opacity:1;fill-rule:nonzero;stroke:none;stroke-width:0.1"
       id="path38" />
    <path
       inkscape:connector-curvature="0"
       d="m 201.115,153.638 h -19.844 v 42.519 h 19.844 v -42.519"
       style="fill:#b5203e;fill-opacity:1;fill-rule:nonzero;stroke:none;stroke-width:0.1"
       id="path40" />
    <path
       inkscape:connector-curvature="0"
       d="M 19.9805,153.638 H 0.136719 v 42.519 H 19.9805 v -42.519"
       style="fill:#b5203e;fill-opacity:1;fill-rule:nonzero;stroke:none;stroke-width:0.1"
       id="path42" />
    <path
       inkscape:connector-curvature="0"
       d="M 52.2422,153.638 H 32.3984 v 42.519 h 19.8438 v -42.519"
       style="fill:#b5203e;fill-opacity:1;fill-rule:nonzero;stroke:none;stroke-width:0.1"
       id="path44" />
    <path
       inkscape:connector-curvature="0"
       d="m 316.265,180.281 h -15.871 v 15.875 h 15.871 z m -24.379,0 h -15.871 v 15.875 h 15.871 z m -24.377,0 h -15.873 v 15.875 h 15.873 z m -24.377,0 h -15.873 v 15.875 h 15.873 z m 85.969,26.08 -32.887,37.709 v 21.224 h -0.009 l -5.991,6.73 c 3.643,2.489 6,6.389 6,10.788 0,6.259 -10.601,11.521 -14.144,13.105 v 20.901 c 0,0.552 -0.447,1 -1,1 -0.553,0 -1,-0.448 -1,-1 V 296.06 c -3.172,-1.389 -14.469,-6.789 -14.469,-13.248 0,-4.697 2.678,-8.838 6.75,-11.284 l -6.738,-6.234 h -0.012 v -21.002 h -10.383 v 10.826 h -5.67 v -10.826 h -6.158 l -29.021,-37.931 h -0.014 v -79.075 h 54.676 v 22.547 h 0.017 c -0.004,0.109 -0.017,0.214 -0.017,0.324 0,6.574 11.91,11.906 11.91,11.906 0,0 11.912,-5.332 11.912,-11.906 0,-0.11 -0.014,-0.215 -0.016,-0.324 h 0.016 v -22.547 h 36.266 v 79.075 h -0.018"
       style="fill:#b5203e;fill-opacity:1;fill-rule:nonzero;stroke:none;stroke-width:0.1"
       id="path46" />
    <path
       inkscape:connector-curvature="0"
       d="m 182.871,123.359 0.365,0.547 h 0.086 c 1.717,2.027 4.248,3.342 7.111,3.342 l 0.018,-0.002 v 0.002 h 10.662 v 20.138 H 149.039 V 127.409 C 146.824,80.2398 106.4,43.491 104.633,41.9059 l -4,-3.586 -4.0041,3.586 C 94.8594,43.4922 54.375,80.2961 52.2188,127.519 h -0.0079 v 19.867 H 0.136719 V 127.247 H 10.8047 v -0.002 l 0.0176,0.002 c 2.8652,0 5.3965,-1.315 7.1113,-3.343 h 0.0937 l 0.3946,-0.592 c 0.1015,-0.142 0.1953,-0.285 0.2871,-0.432 L 100.633,0 182.515,122.824 c 0.113,0.182 0.231,0.36 0.356,0.535"
       style="fill:#cfcacb;fill-opacity:1;fill-rule:nonzero;stroke:none;stroke-width:0.1"
       id="path48" />
  </g>
</svg>
