<?xml version="1.0" encoding="UTF-8" standalone="no"?>
<!-- Created with Inkscape (http://www.inkscape.org/) -->

<svg
   xmlns:dc="http://purl.org/dc/elements/1.1/"
   xmlns:cc="http://creativecommons.org/ns#"
   xmlns:rdf="http://www.w3.org/1999/02/22-rdf-syntax-ns#"
   xmlns:svg="http://www.w3.org/2000/svg"
   xmlns="http://www.w3.org/2000/svg"
   xmlns:sodipodi="http://sodipodi.sourceforge.net/DTD/sodipodi-0.dtd"
   xmlns:inkscape="http://www.inkscape.org/namespaces/inkscape"
   width="92.952072mm"
   height="70.443138mm"
   viewBox="0 0 92.952072 70.443138"
   version="1.1"
   id="svg8"
   inkscape:version="0.92.0 r15299"
   sodipodi:docname="Festung_ICON.svg">
  <defs
     id="defs2" />
  <sodipodi:namedview
     id="base"
     pagecolor="#ffffff"
     bordercolor="#666666"
     borderopacity="1.0"
     inkscape:pageopacity="0.0"
     inkscape:pageshadow="2"
     inkscape:zoom="0.98994949"
     inkscape:cx="-35.40179"
     inkscape:cy="156.66796"
     inkscape:document-units="mm"
     inkscape:current-layer="layer1"
     showgrid="false"
     fit-margin-top="0"
     fit-margin-left="0"
     fit-margin-right="0"
     fit-margin-bottom="0"
     inkscape:window-width="1920"
     inkscape:window-height="1017"
     inkscape:window-x="1912"
     inkscape:window-y="166"
     inkscape:window-maximized="1" />
  <metadata
     id="metadata5">
    <rdf:RDF>
      <cc:Work
         rdf:about="">
        <dc:format>image/svg+xml</dc:format>
        <dc:type
           rdf:resource="http://purl.org/dc/dcmitype/StillImage" />
        <dc:title></dc:title>
      </cc:Work>
    </rdf:RDF>
  </metadata>
  <g
     inkscape:label="Ebene 1"
     inkscape:groupmode="layer"
     id="layer1"
     transform="translate(-91.795414,-63.275064)">
    <path
       style="fill:none;stroke:#000000;stroke-width:1.40100002;stroke-linecap:butt;stroke-linejoin:miter;stroke-miterlimit:4;stroke-dasharray:none;stroke-opacity:1"
       d="m 142.09542,79.710935 9.52028,-7.535899 c 0,0 1.84263,-0.992187 0.25986,-3.189174 -0.5906,-1.228422 0.99218,-2.055246 1.5119,-2.929316 0.51972,-0.874069 0.16537,-1.630022 0.8032,-2.055244"
       id="path4496"
       inkscape:connector-curvature="0"
       sodipodi:nodetypes="cccsc" />
    <path
       style="fill:none;stroke:#000000;stroke-width:1.40100002;stroke-linecap:butt;stroke-linejoin:miter;stroke-miterlimit:4;stroke-dasharray:none;stroke-opacity:1"
       d="m 168.73773,78.354811 -10.7735,-6.515519 c 0,0 -2.03966,-0.796922 -0.58524,-3.147079 0.50282,-1.283625 -1.24674,-1.942842 -1.88003,-2.758999 -0.63329,-0.816157 -0.33345,-1.605141 -1.04746,-1.962381"
       id="path4496-6"
       inkscape:connector-curvature="0"
       sodipodi:nodetypes="cccsc" />
    <path
       style="fill:none;stroke:#000000;stroke-width:1.40100002;stroke-linecap:butt;stroke-linejoin:miter;stroke-miterlimit:4;stroke-dasharray:none;stroke-opacity:1"
       d="m 154.4515,63.970833 -0.26084,0.03047"
       id="path4513"
       inkscape:connector-curvature="0" />
    <path
       style="fill:none;stroke:#000000;stroke-width:1.40100002;stroke-linecap:butt;stroke-linejoin:miter;stroke-miterlimit:4;stroke-dasharray:none;stroke-opacity:1"
       d="m 168.73773,78.354811 5.13132,2.915277 c 0,0 6.2366,2.267857 7.27604,3.496281 1.03943,1.22842 -0.0945,4.063243 -0.75595,4.630208 -0.66146,0.566962 1.03943,24.095983 1.03943,24.095983 l -0.37798,9.5439 3.02381,10.48768"
       id="path4515"
       inkscape:connector-curvature="0"
       sodipodi:nodetypes="ccccccc" />
    <path
       style="fill:none;stroke:#000000;stroke-width:1.40100002;stroke-linecap:butt;stroke-linejoin:miter;stroke-miterlimit:4;stroke-dasharray:none;stroke-opacity:1"
       d="m 132.19717,123.13095 c 0,0 48.85342,-0.0945 48.85342,-0.0945"
       id="path4517"
       inkscape:connector-curvature="0" />
    <path
       style="fill:none;stroke:#000000;stroke-width:1.40100002;stroke-linecap:butt;stroke-linejoin:miter;stroke-miterlimit:4;stroke-dasharray:none;stroke-opacity:1"
       d="m 154.68675,82.215029 c 0,0 15.21355,-0.566966 19.56027,1.039434 4.34673,1.606399 6.04762,3.685267 5.95313,5.858631 -0.0945,2.173362 0.10655,0.385525 0.10655,0.385525"
       id="path4519"
       inkscape:connector-curvature="0" />
    <path
       style="fill:none;stroke:#000000;stroke-width:1.40100002;stroke-linecap:butt;stroke-linejoin:miter;stroke-miterlimit:4;stroke-dasharray:none;stroke-opacity:1"
       d="m 142.09542,79.710935 -11.55189,8.031996 c 0,0 -2.64584,2.409597 1.27567,4.630208 l -0.14174,-2.834821 c 0,0 1.74814,-3.401786 9.4494,-5.291667 0,0 9.82737,-2.22061 13.55989,-2.031622"
       id="path4521"
       inkscape:connector-curvature="0" />
    <path
       style="fill:none;stroke:#000000;stroke-width:1.40100002;stroke-linecap:butt;stroke-linejoin:miter;stroke-miterlimit:4;stroke-dasharray:none;stroke-opacity:1"
       d="m 131.8192,92.373137 0.37797,30.757813"
       id="path4523"
       inkscape:connector-curvature="0" />
    <path
       style="fill:none;stroke:#000000;stroke-width:1.40100002;stroke-linecap:butt;stroke-linejoin:miter;stroke-miterlimit:4;stroke-dasharray:none;stroke-opacity:1"
       d="m 132.00818,104.8936 -3.59077,0.85045 -5.85863,5.10268 -0.75595,7.55952"
       id="path4525"
       inkscape:connector-curvature="0" />
    <path
       style="fill:none;stroke:#000000;stroke-width:1.40100002;stroke-linecap:butt;stroke-linejoin:miter;stroke-miterlimit:4;stroke-dasharray:none;stroke-opacity:1"
       d="m 94.494047,110.18527 12.000743,-0.37798 3.68527,-1.88988 2.17336,1.13393 10.01637,-0.37798 1.88988,0.56697"
       id="path4527"
       inkscape:connector-curvature="0" />
    <path
       style="fill:none;stroke:#000000;stroke-width:1.40100002;stroke-linecap:butt;stroke-linejoin:miter;stroke-miterlimit:4;stroke-dasharray:none;stroke-opacity:1"
       d="m 126.62202,107.53943 -0.28348,-1.22842 -4.81919,-4.53571 -8.59897,0.47247 -0.0945,-1.13393 -0.66146,-0.18899 -0.37797,1.32292 -4.8192,0.18898 -13.489025,7.37054 1.01581,0.37798"
       id="path4529"
       inkscape:connector-curvature="0" />
    <path
       style="fill:none;stroke:#000000;stroke-width:1.40100002;stroke-linecap:butt;stroke-linejoin:miter;stroke-miterlimit:4;stroke-dasharray:none;stroke-opacity:1"
       d="m 106.49479,109.80729 -1.03943,0.85045 h 8.40997 l -1.51191,-1.6064"
       id="path4531"
       inkscape:connector-curvature="0" />
    <path
       style="fill:none;stroke:#000000;stroke-width:1.40100002;stroke-linecap:butt;stroke-linejoin:miter;stroke-miterlimit:4;stroke-dasharray:none;stroke-opacity:1"
       d="m 106.47809,110.55899 -0.73925,18.99756"
       id="path4533"
       inkscape:connector-curvature="0"
       sodipodi:nodetypes="cc" />
    <path
       style="fill:none;stroke:#000000;stroke-width:1.40100002;stroke-linecap:butt;stroke-linejoin:miter;stroke-miterlimit:4;stroke-dasharray:none;stroke-opacity:1"
       d="m 113.0385,110.61049 0.4016,18.96968"
       id="path4535"
       inkscape:connector-curvature="0" />
    <path
       style="fill:none;stroke:#000000;stroke-width:1.40100002;stroke-linecap:butt;stroke-linejoin:miter;stroke-miterlimit:4;stroke-dasharray:none;stroke-opacity:1"
       d="m 106.09319,121.26469 h 7.15793"
       id="path4537"
       inkscape:connector-curvature="0" />
    <path
       style="fill:none;stroke:#000000;stroke-width:1.40100002;stroke-linecap:butt;stroke-linejoin:miter;stroke-miterlimit:4;stroke-dasharray:none;stroke-opacity:1"
       d="m 106.3058,115.66592 6.80357,0.0473"
       id="path4539"
       inkscape:connector-curvature="0" />
    <path
       style="fill:none;stroke:#000000;stroke-width:1.40100002;stroke-linecap:butt;stroke-linejoin:miter;stroke-miterlimit:4;stroke-dasharray:none;stroke-opacity:1"
       d="m 94.494045,110.18527 -0.09449,22.9148"
       id="path4541"
       inkscape:connector-curvature="0" />
    <path
       style="fill:none;stroke:#000000;stroke-width:1.40100002;stroke-linecap:butt;stroke-linejoin:miter;stroke-miterlimit:4;stroke-dasharray:none;stroke-opacity:1"
       d="m 154.34815,110.24542 4.67722,-0.0668 v -3.54132 c 0,0 -1.5368,-1.20271 -4.6104,-0.0668 z"
       id="path4543"
       inkscape:connector-curvature="0" />
    <path
       style="fill:none;stroke:#000000;stroke-width:1.40100002;stroke-linecap:butt;stroke-linejoin:miter;stroke-miterlimit:4;stroke-dasharray:none;stroke-opacity:1"
       d="m 170.58477,106.83773 0.13364,3.80859 3.40768,0.20045 -0.0668,-3.67495 c 0,0 -0.73499,-1.1359 -3.47451,-0.33409 z"
       id="path4545"
       inkscape:connector-curvature="0" />
    <path
       style="fill:none;stroke:#000000;stroke-width:1.40100002;stroke-linecap:butt;stroke-linejoin:miter;stroke-miterlimit:4;stroke-dasharray:none;stroke-opacity:1"
       d="m 171.72067,95.746045 0.0668,3.407685 2.53906,0.400905 0.13363,-3.474503 c 0,0 -1.46998,-0.734992 -2.73951,-0.334087 z"
       id="path4547"
       inkscape:connector-curvature="0" />
    <path
       style="fill:none;stroke:#000000;stroke-width:1.40100002;stroke-linecap:butt;stroke-linejoin:miter;stroke-miterlimit:4;stroke-dasharray:none;stroke-opacity:1"
       d="m 142.2542,100.08917 3.00679,-0.4009 -0.13364,-3.54132 c 0,0 -2.00452,0 -2.73951,0.668173 z"
       id="path4549"
       inkscape:connector-curvature="0" />
    <path
       style="fill:none;stroke:#000000;stroke-width:1.40100002;stroke-linecap:butt;stroke-linejoin:miter;stroke-miterlimit:4;stroke-dasharray:none;stroke-opacity:1"
       d="m 139.04697,107.83999 -0.13363,3.54132 3.27405,-0.20045 v -3.47451 c 0,0 -1.46998,-0.73499 -3.14042,0.13364 z"
       id="path4551"
       inkscape:connector-curvature="0" />
    <path
       style="fill:none;stroke:#000000;stroke-width:1.40100002;stroke-linecap:butt;stroke-linejoin:miter;stroke-miterlimit:4;stroke-dasharray:none;stroke-opacity:1"
       d="m 156.75358,96.881941 h 4.07586 v -1.469983 c 0,0 -2.47225,-0.868627 -3.94223,-0.133636 z"
       id="path4553"
       inkscape:connector-curvature="0" />
    <path
       style="fill:none;stroke:#000000;stroke-width:1.40100002;stroke-linecap:butt;stroke-linejoin:miter;stroke-miterlimit:4;stroke-dasharray:none;stroke-opacity:1"
       d="m 132.19717,123.13095 -1.50237,9.49829"
       id="path4555"
       inkscape:connector-curvature="0" />
  </g>
</svg>
